<svg width="1200" height="1200" xmlns="http://www.w3.org/2000/svg" xmlns:xlink="http://www.w3.org/1999/xlink" version="1.1"><g transform="scale(12) translate(0, 0)">                        <g fill="#a1eafb"><g xmlns="http://www.w3.org/2000/svg"><path d="M50,5C25.1,5,5,25.1,5,50c0,24.9,20.1,45,45,45s45-20.1,45-45C95,25.1,74.9,5,50,5z M46.5,62.2l-8.4,8.4   c-2.4,2.4-6.3,2.4-8.7,0c-2.4-2.4-2.4-6.3,0-8.7l8.4-8.4l0.3-0.3l8.4-8.4c2.4-2.4,6.3-2.4,8.7,0l-1.4,1.4c-1.6-1.6-4.2-1.6-5.8,0   l-8.4,8.4L39.2,55l-8.4,8.4c-1.6,1.6-1.6,4.2,0,5.8c1.6,1.6,4.2,1.6,5.8,0l8.4-8.4l0.1-0.1l1.4,1.4L46.5,62.2z M70.6,38.1l-8.4,8.4   l-0.3,0.3l-8.4,8.4c-2.4,2.4-6.3,2.4-8.7,0l1.4-1.4c1.6,1.6,4.2,1.6,5.8,0l8.4-8.4l0.3-0.3l8.4-8.4c1.6-1.6,1.6-4.2,0-5.8   c-1.6-1.6-4.2-1.6-5.8,0L55,39.2l-0.1,0.1l-1.4-1.4l0.1-0.1l8.4-8.4c2.4-2.4,6.3-2.4,8.7,0C73,31.8,73,35.7,70.6,38.1z"/></g></g>        </g></svg>